<svg id="Layer_1" data-name="Layer 1" xmlns="http://www.w3.org/2000/svg" viewBox="0 0 103.42 94.58"><defs><style>.cls-1{fill:#fff;}.cls-2{fill:#069320;}.cls-3{fill:#0c95e5;}</style></defs><title>Koopa Logo</title><circle class="cls-1" cx="51.71" cy="35.5" r="35.5"/><path d="M23.88,41.84h3.6c0,.45.08.91.14,1.37A26.09,26.09,0,0,0,34.32,58,29.43,29.43,0,0,0,49,66.9,24.21,24.21,0,0,0,61.6,67,28.37,28.37,0,0,0,82.93,45.38c.23-1.08.35-2.19.53-3.28,0-.09,0-.17,0-.26h3.68a31.72,31.72,0,0,1-63.3,0Z" transform="translate(-3.79 -4.21)"/><path d="M87.19,37.61H83.6c-.07-.62-.13-1.25-.21-1.87a25,25,0,0,0-4.26-11.2A29,29,0,0,0,60.39,12.2a25.71,25.71,0,0,0-17.53,2.42,28.05,28.05,0,0,0-10.57,9.72,29.62,29.62,0,0,0-4.45,11.39c-.05.31-.1.62-.14.94s-.07.62-.11.95H23.81c1-10.29,5.55-18.47,14.08-24.28a31.71,31.71,0,0,1,49.3,24.27Z" transform="translate(-3.79 -4.21)"/><path class="cls-2" d="M31.84,41.85H36c.1.63.18,1.25.3,1.87a17.68,17.68,0,0,0,4.64,8.93A21.13,21.13,0,0,0,52.82,59a13.06,13.06,0,0,0,2.64.26A20,20,0,0,0,74.51,43.93c.18-.68.29-1.38.43-2.08h4.41c-.06.56-.1,1.12-.18,1.67a22,22,0,0,1-4.07,9.85,24.81,24.81,0,0,1-13.67,9.36,20.89,20.89,0,0,1-6.63.83A24.17,24.17,0,0,1,32.58,45.83c-.34-1.21-.5-2.48-.74-3.72A2.25,2.25,0,0,1,31.84,41.85Z" transform="translate(-3.79 -4.21)"/><path class="cls-3" d="M31.84,37.62H36c.1-.63.18-1.26.3-1.88a17.65,17.65,0,0,1,4.64-8.92,21,21,0,0,1,11.88-6.35,13.06,13.06,0,0,1,2.64-.26,19.14,19.14,0,0,1,7,1.41,19.37,19.37,0,0,1,12,13.91c.18.68.29,1.38.43,2.09h4.41c-.06-.57-.1-1.12-.18-1.67A21.93,21.93,0,0,0,75.1,26.1a24.76,24.76,0,0,0-13.67-9.36,20.89,20.89,0,0,0-6.63-.83A24.18,24.18,0,0,0,32.58,33.63c-.34,1.22-.5,2.48-.74,3.72A2.42,2.42,0,0,0,31.84,37.62Z" transform="translate(-3.79 -4.21)"/><path d="M70.63,37.63H59.15a.62.62,0,0,1-.38-.13c-.18-.15-.13-.3,0-.47l6-6.82.27-.31H58.6a.52.52,0,0,0-.39.16q-2.07,3-4.09,6.11c-.26.39-.48.82-.72,1.23a1.25,1.25,0,0,1-.13.17V30H47.62v7.59H40.28c.09-.48.16-1,.26-1.42a14.52,14.52,0,0,1,6.1-8.8,16.09,16.09,0,0,1,9.42-3,13.66,13.66,0,0,1,10,4.23,16.47,16.47,0,0,1,4.61,8.88Z" transform="translate(-3.79 -4.21)"/><path d="M40.45,41.83H47.6v7.45h5.66v-.36c0-1.68,0-3.36,0-5a.91.91,0,0,1,.16-.45c.4-.53.81-1,1.24-1.57l.2.29Q56.9,45.6,59,49a.49.49,0,0,0,.34.25c2.2,0,4.4,0,6.59,0l.13,0-4.58-7.43h9.38c-.14.66-.24,1.3-.4,1.92A14.48,14.48,0,0,1,65,51.63a16.36,16.36,0,0,1-9.17,3.42A12.62,12.62,0,0,1,52,54.57a15.22,15.22,0,0,1-8.69-5.76A15.48,15.48,0,0,1,40.45,42,1.18,1.18,0,0,1,40.45,41.83Z" transform="translate(-3.79 -4.21)"/><path class="cls-1" d="M23.35,98.47c-2.05,0-4,0-5.91,0-.17,0-.38-.23-.5-.4Q14.58,94.51,12.25,91l-.4-.58c-.74.81-1.4,1.64-2.18,2.34a3.35,3.35,0,0,0-1.2,3.12,22.29,22.29,0,0,1,0,2.59H3.79V78.9H8.47v8.56c.24-.26.39-.4.52-.55,2.23-2.57,4.47-5.15,6.71-7.71a1,1,0,0,1,.61-.32c1.76,0,3.52,0,5.28,0l.3,0-6.72,7.87Z" transform="translate(-3.79 -4.21)"/><path class="cls-1" d="M56,98.79A10.12,10.12,0,1,1,66.19,88.73,10.11,10.11,0,0,1,56,98.79Zm.07-4.39A5.71,5.71,0,1,0,56,83a5.71,5.71,0,1,0,0,11.42Z" transform="translate(-3.79 -4.21)"/><path class="cls-1" d="M34,98.79A10.12,10.12,0,1,1,44.13,88.73,10.11,10.11,0,0,1,34,98.79Zm5.74-10.13A5.73,5.73,0,0,0,34,83,5.71,5.71,0,1,0,34,94.4,5.7,5.7,0,0,0,39.74,88.66Z" transform="translate(-3.79 -4.21)"/><path class="cls-1" d="M107.21,98.52h-2.36c-.71,0-1.43,0-2.15,0a.61.61,0,0,1-.71-.46c-.28-.76-.62-1.49-.92-2.23a.49.49,0,0,0-.54-.39c-2.9,0-5.8,0-8.71,0a.65.65,0,0,0-.49.33c-.37.78-.68,1.58-1,2.36-.06.15-.25.34-.39.34-1.52,0-3,0-4.57,0,0,0,0,0-.12-.09.08-.21.16-.44.26-.67q3.91-9.15,7.83-18.31a.74.74,0,0,1,.81-.55c1.42,0,2.84,0,4.25,0a.54.54,0,0,1,.61.37q4.05,9.45,8.11,18.89C107.12,98.24,107.15,98.34,107.21,98.52Zm-14.09-7h6.14l-3-7.28C95.15,86.77,94.15,89.13,93.12,91.55Z" transform="translate(-3.79 -4.21)"/><path class="cls-1" d="M73.9,94v4.41H69.18V78.92l.37,0c2.92,0,5.84,0,8.76,0a6.76,6.76,0,0,1,6.51,3.94,8,8,0,0,1,0,7.26C83.46,92.83,81.12,94,78.19,94c-1.22,0-2.44,0-3.65,0Zm0-4.39c1.44,0,2.82.05,4.2,0a2.72,2.72,0,0,0,2.62-2.29,3,3,0,0,0-3.14-4c-1.09,0-2.18,0-3.28,0-.13,0-.27,0-.4,0Z" transform="translate(-3.79 -4.21)"/></svg>